<svg xmlns="http://www.w3.org/2000/svg" viewBox="0 0 860 300" font-family="Inter, Arial, sans-serif">
  <defs><marker id="a" markerWidth="9" markerHeight="9" refX="6" refY="3" orient="auto"><path d="M0,0 L6,3 L0,6 Z" fill="#5f6b7c"/></marker></defs>
  <g>
    <rect x="12" y="46" width="140" height="52" rx="8" fill="#eef2f8" stroke="#215db0" stroke-width="1.5"/>
    <text x="82" y="70" text-anchor="middle" fill="#14203a" font-size="14" font-weight="600">USB-C 5V</text>
    <text x="82" y="87" text-anchor="middle" fill="#5f6b7c" font-size="11">power + serial</text>

    <rect x="212" y="46" width="150" height="52" rx="8" fill="#dbe7fb" stroke="#215db0" stroke-width="1.5"/>
    <text x="287" y="70" text-anchor="middle" fill="#14203a" font-size="14" font-weight="600">ESP32-S3 host</text>
    <text x="287" y="87" text-anchor="middle" fill="#5f6b7c" font-size="11">firmware + ranging</text>

    <rect x="422" y="46" width="160" height="52" rx="8" fill="#eef2f8" stroke="#215db0" stroke-width="1.5"/>
    <text x="502" y="70" text-anchor="middle" fill="#14203a" font-size="14" font-weight="600">MagicRF M100</text>
    <text x="502" y="87" text-anchor="middle" fill="#5f6b7c" font-size="11">UHF Gen2 module</text>

    <rect x="642" y="46" width="120" height="52" rx="8" fill="#eef2f8" stroke="#215db0" stroke-width="1.5"/>
    <text x="702" y="70" text-anchor="middle" fill="#14203a" font-size="14" font-weight="600">SMA</text>
    <text x="702" y="87" text-anchor="middle" fill="#5f6b7c" font-size="11">50 ohm feed</text>

    <rect x="792" y="46" width="56" height="52" rx="8" fill="#f4f6fa" stroke="#5f6b7c" stroke-width="1.2" stroke-dasharray="4 3"/>
    <text x="820" y="76" text-anchor="middle" fill="#5f6b7c" font-size="12">antenna</text>

    <rect x="200" y="190" width="174" height="52" rx="8" fill="#dff0e6" stroke="#1c6e42" stroke-width="1.5"/>
    <text x="287" y="214" text-anchor="middle" fill="#14203a" font-size="14" font-weight="600">RSSI ranging model</text>
    <text x="287" y="231" text-anchor="middle" fill="#5f6b7c" font-size="11">path loss, median, hop avg</text>

    <path d="M152,72 L206,72" stroke="#5f6b7c" stroke-width="1.5" marker-end="url(#a)"/>
    <path d="M362,72 L416,72" stroke="#5f6b7c" stroke-width="1.5" marker-end="url(#a)"/>
    <text x="389" y="64" text-anchor="middle" fill="#5f6b7c" font-size="10">UART</text>
    <path d="M582,72 L636,72" stroke="#5f6b7c" stroke-width="1.5" marker-end="url(#a)"/>
    <text x="609" y="64" text-anchor="middle" fill="#5f6b7c" font-size="10">50 ohm</text>
    <path d="M762,72 L786,72" stroke="#5f6b7c" stroke-width="1.5" marker-end="url(#a)"/>
    <path d="M287,98 L287,184" stroke="#5f6b7c" stroke-width="1.5" marker-end="url(#a)"/>
    <text x="452" y="220" fill="#1c6e42" font-size="13" font-weight="600">distance per tag</text>
    <path d="M374,216 L446,216" stroke="#1c6e42" stroke-width="1.5" marker-end="url(#a)"/>
  </g>
</svg>
